<svg xmlns="http://www.w3.org/2000/svg" width="110" height="36" viewBox="0 0 110 36" fill="none">
  <g clip-path="url(#clip0_2896_6664)">
    <path d="M-0.0566406 28.2376V20.4502L10.1198 0H23.9649V7.79091L13.7936 28.2376H-0.0566406Z" fill="url(#paint0_linear_2896_6664)"></path>
    <path d="M47.9536 27.9738H43.7251V25.2332H43.6468C43.0465 26.4078 42.1721 27.256 41.0236 27.7781C39.8752 28.274 38.6615 28.522 37.3825 28.522C35.7903 28.522 34.3939 28.2479 33.1932 27.6998C32.0187 27.1255 31.0399 26.3556 30.2568 25.3898C29.4738 24.4241 28.8865 23.2886 28.495 21.9836C28.1035 20.6524 27.9077 19.2299 27.9077 17.716C27.9077 15.8889 28.1557 14.3098 28.6516 12.9786C29.1475 11.6474 29.8001 10.5512 30.6092 9.68984C31.4444 8.82849 32.3841 8.20206 33.4282 7.81054C34.4983 7.39292 35.5815 7.18411 36.6778 7.18411C37.3042 7.18411 37.9437 7.24936 38.5962 7.37987C39.2488 7.48427 39.8752 7.66698 40.4755 7.928C41.0758 8.18901 41.624 8.52833 42.1199 8.94595C42.6419 9.33747 43.0726 9.80729 43.4119 10.3554H43.4902V0.0192871H47.9536V27.9738ZM32.371 18.0684C32.371 18.9297 32.4755 19.778 32.6843 20.6133C32.9192 21.4485 33.2585 22.1924 33.7022 22.8449C34.172 23.4975 34.7593 24.0195 35.4641 24.411C36.1688 24.8025 37.004 24.9983 37.9698 24.9983C38.9616 24.9983 39.8099 24.7895 40.5147 24.3718C41.2455 23.9542 41.8328 23.4061 42.2765 22.7275C42.7463 22.0488 43.0857 21.2919 43.2945 20.4566C43.5294 19.5953 43.6468 18.7209 43.6468 17.8335C43.6468 15.5887 43.1379 13.84 42.1199 12.5871C41.128 11.3342 39.7708 10.7078 38.0481 10.7078C37.004 10.7078 36.1166 10.9297 35.3858 11.3734C34.681 11.791 34.0937 12.3522 33.6239 13.0569C33.1802 13.7355 32.8539 14.5186 32.6451 15.406C32.4624 16.2674 32.371 17.1548 32.371 18.0684Z" fill="#161618"></path>
    <path d="M68.208 23.4714C68.208 24.0195 68.2732 24.411 68.4038 24.6459C68.5604 24.8808 68.8475 24.9983 69.2651 24.9983C69.3956 24.9983 69.5522 24.9983 69.7349 24.9983C69.9176 24.9983 70.1264 24.9722 70.3614 24.92V28.013C70.2048 28.0652 69.9959 28.1174 69.7349 28.1696C69.5 28.2479 69.252 28.3132 68.991 28.3654C68.73 28.4176 68.469 28.4567 68.208 28.4828C67.947 28.5089 67.7251 28.522 67.5424 28.522C66.6289 28.522 65.8719 28.3393 65.2716 27.9738C64.6713 27.6084 64.2797 26.9689 64.097 26.0554C63.2096 26.9167 62.1133 27.5432 60.8083 27.9347C59.5293 28.3262 58.2895 28.522 57.0888 28.522C56.1753 28.522 55.3009 28.3915 54.4656 28.1304C53.6304 27.8955 52.8865 27.5432 52.234 27.0733C51.6075 26.5774 51.0986 25.964 50.707 25.2332C50.3416 24.4763 50.1589 23.6019 50.1589 22.61C50.1589 21.3571 50.3808 20.3392 50.8245 19.5561C51.2943 18.7731 51.8947 18.1597 52.6255 17.716C53.3824 17.2723 54.2177 16.9591 55.1312 16.7764C56.0709 16.5675 57.0105 16.4109 57.9502 16.3065C58.7593 16.1499 59.5293 16.0455 60.2601 15.9933C60.991 15.915 61.6305 15.7976 62.1786 15.6409C62.7528 15.4843 63.1965 15.2494 63.5098 14.9362C63.8491 14.5969 64.0187 14.101 64.0187 13.4484C64.0187 12.8742 63.8752 12.4044 63.5881 12.039C63.327 11.6735 62.9877 11.3995 62.5701 11.2168C62.1786 11.008 61.7349 10.8774 61.2389 10.8252C60.743 10.7469 60.2732 10.7078 59.8295 10.7078C58.5766 10.7078 57.5456 10.9688 56.7365 11.4908C55.9273 12.0129 55.4705 12.822 55.3661 13.9183H50.9028C50.9811 12.6132 51.2943 11.53 51.8425 10.6686C52.3906 9.80729 53.0823 9.11561 53.9175 8.59358C54.7789 8.07155 55.7446 7.70614 56.8148 7.49733C57.8849 7.28851 58.9812 7.18411 60.1035 7.18411C61.0954 7.18411 62.0742 7.28851 63.0399 7.49733C64.0057 7.70614 64.867 8.04545 65.624 8.51528C66.407 8.9851 67.0334 9.59848 67.5033 10.3554C67.9731 11.0863 68.208 11.9868 68.208 13.0569V23.4714ZM63.7447 17.8335C63.066 18.2772 62.2308 18.5512 61.2389 18.6557C60.2471 18.734 59.2552 18.8645 58.2634 19.0472C57.7936 19.1255 57.3368 19.2429 56.8931 19.3995C56.4493 19.53 56.0578 19.7258 55.7185 19.9868C55.3792 20.2217 55.1051 20.548 54.8963 20.9656C54.7136 21.3571 54.6222 21.84 54.6222 22.4142C54.6222 22.9102 54.7658 23.3278 55.0529 23.6671C55.34 24.0064 55.6793 24.2805 56.0709 24.4893C56.4885 24.672 56.9322 24.8025 57.402 24.8808C57.898 24.9591 58.3417 24.9983 58.7332 24.9983C59.2291 24.9983 59.7642 24.933 60.3384 24.8025C60.9127 24.672 61.4477 24.4502 61.9437 24.1369C62.4657 23.8237 62.8964 23.4322 63.2357 22.9624C63.575 22.4665 63.7447 21.8661 63.7447 21.1614V17.8335Z" fill="#161618"></path>
    <path d="M71.5619 0.0192871H76.0252V4.24771H71.5619V0.0192871ZM71.5619 7.73224H76.0252V27.9738H71.5619V7.73224Z" fill="#161618"></path>
    <path d="M79.4397 0.0192871H83.9031V27.9738H79.4397V0.0192871Z" fill="#161618"></path>
    <path d="M84.9684 7.73224H89.8624L95.148 22.8449H95.2263L100.355 7.73224H105.014L97.1447 29.0701C96.7793 29.9836 96.4139 30.858 96.0484 31.6933C95.7091 32.5285 95.2785 33.2594 94.7564 33.8858C94.2605 34.5383 93.6341 35.0473 92.8771 35.4127C92.1202 35.8042 91.1544 36 89.9799 36C88.9358 36 87.9048 35.9217 86.8869 35.7651V32.0065C87.2523 32.0587 87.6047 32.1109 87.944 32.1631C88.2833 32.2414 88.6357 32.2806 89.0011 32.2806C89.5231 32.2806 89.9538 32.2153 90.2931 32.0848C90.6324 31.9543 90.9065 31.7585 91.1153 31.4975C91.3502 31.2626 91.546 30.9755 91.7026 30.6362C91.8592 30.2969 92.0027 29.9053 92.1332 29.4616L92.6422 27.8955L84.9684 7.73224Z" fill="#161618"></path>
    <path d="M108.543 9.47143L107.943 8.0752H108.215L108.619 9.06546L109.021 8.0752H109.292L108.695 9.47143H108.543ZM107.877 9.47143V8.0752H108.156V9.47143H107.877ZM109.08 9.47143V8.0752H109.359V9.47143H109.08ZM106.93 9.47143V8.19661H107.209V9.47143H106.93ZM106.505 8.31422V8.0752H107.634V8.31422H106.505Z" fill="#161618"></path>
  </g>
  <defs>
    <linearGradient id="paint0_linear_2896_6664" x1="13.6571" y1="3.42151e-07" x2="6.6017" y2="51.8929" gradientUnits="userSpaceOnUse">
      <stop offset="0.197917" stop-color="#FF6E4A"></stop>
      <stop offset="1" stop-color="#FF008A"></stop>
    </linearGradient>
    <clipPath id="clip0_2896_6664">
      <rect width="110" height="36" fill="white"></rect>
    </clipPath>
  </defs>
</svg>
